<?xml version="1.0" standalone="no"?>
<!DOCTYPE svg PUBLIC "-//W3C//DTD SVG 20010904//EN"
 "http://www.w3.org/TR/2001/REC-SVG-20010904/DTD/svg10.dtd">
<svg version="1.0" xmlns="http://www.w3.org/2000/svg"
 width="500.000000pt" height="500.000000pt" viewBox="0 0 500.000000 500.000000"
 preserveAspectRatio="xMidYMid meet">
<metadata>
Created by potrace 1.14, written by Peter Selinger 2001-2017
</metadata>
<g transform="translate(0.000000,500.000000) scale(0.100000,-0.100000)"
fill="#000000" stroke="none">
<path d="M439 4560 c-5 -20 -3 -4113 2 -4116 5 -3 815 -6 1060 -4 l55 0 -1
901 c0 609 3 903 10 907 5 4 141 64 300 133 l290 126 5 -1036 5 -1037 347 0
348 0 2 1179 3 1180 113 63 112 63 0 -1236 c-1 -679 1 -1238 4 -1240 5 -6
1458 -4 1463 1 7 6 4 4108 -2 4115 -8 7 -4114 9 -4116 1z m3886 -2049 c0
-1001 -4 -1823 -8 -1828 -5 -4 -109 -8 -232 -8 -217 0 -224 0 -227 20 -2 11
-3 503 -2 1093 l1 1073 -41 28 c-35 23 -195 122 -254 156 -10 6 -81 49 -159
98 -78 48 -146 87 -151 87 -6 0 -54 -26 -109 -58 -54 -32 -118 -70 -143 -84
-25 -14 -66 -38 -92 -53 l-48 -27 0 211 0 211 -350 0 -349 0 -243 -106 c-134
-58 -256 -111 -273 -118 -67 -30 -149 -66 -322 -142 l-183 -79 0 -1155 0
-1155 -232 0 -233 0 -3 1828 -2 1827 1828 0 1828 0 -1 -1819z"/>
</g>
</svg>
